<svg width="43" height="43" viewBox="0 0 43 43" fill="none" xmlns="http://www.w3.org/2000/svg">
<path d="M5 6.27052C5.00017 5.51066 5.26497 4.77457 5.7489 4.18873C6.23282 3.60289 6.90566 3.20387 7.65183 3.06023C8.39799 2.91658 9.17089 3.03727 9.83773 3.40157C10.5046 3.76587 11.0237 4.35103 11.306 5.05652L11.594 5.77252C10.3615 6.67501 9.40555 7.90385 8.834 9.32052C8.02274 11.3098 8.00841 13.535 8.794 15.5345C8.86783 15.7214 8.97846 15.8916 9.11934 16.035C9.26022 16.1783 9.42847 16.2919 9.61409 16.3689C9.79971 16.446 9.99892 16.4849 10.1999 16.4835C10.4009 16.482 10.5995 16.4402 10.784 16.3605L22.704 11.2285C23.0618 11.0747 23.3458 10.7877 23.4959 10.4283C23.6459 10.0688 23.6503 9.66511 23.508 9.30252C23.127 8.31845 22.5537 7.42018 21.8216 6.66023C21.0895 5.90029 20.2132 5.2939 19.244 4.87652C17.6873 4.20806 15.9534 4.07305 14.312 4.49252L14.092 3.94252C13.551 2.58934 12.5556 1.46685 11.2768 0.767999C9.99798 0.0691448 8.51567 -0.16243 7.08464 0.113077C5.65361 0.388585 4.36324 1.15397 3.43532 2.27767C2.5074 3.40137 1.99988 4.81321 2 6.27052V20.0005H1.5C1.10218 20.0005 0.720644 20.1586 0.43934 20.4399C0.158035 20.7212 0 21.1027 0 21.5005C0 21.8983 0.158035 22.2799 0.43934 22.5612C0.720644 22.8425 1.10218 23.0005 1.5 23.0005H2V23.7105C2 24.4605 2 24.9005 2.032 25.3905C2.316 29.8645 4.732 33.9945 8.236 36.6945L8.158 36.8305L6.158 40.8305C5.98396 41.186 5.95748 41.5959 6.08432 41.9708C6.21117 42.3457 6.48106 42.6553 6.83519 42.8321C7.18931 43.0089 7.59896 43.0386 7.97486 42.9147C8.35077 42.7907 8.66245 42.5233 8.842 42.1705L10.778 38.3005C12.39 39.1216 14.1389 39.6402 15.938 39.8305C16.428 39.8805 16.726 39.8905 17.234 39.9105H17.248C18.728 39.9665 20.176 40.0005 21.5 40.0005C22.824 40.0005 24.272 39.9665 25.752 39.9105H25.766C26.274 39.8905 26.574 39.8805 27.062 39.8305C28.8611 39.6402 30.61 39.1216 32.222 38.3005L34.158 42.1725C34.2461 42.3488 34.3681 42.5059 34.5169 42.635C34.6658 42.7641 34.8386 42.8626 35.0255 42.9249C35.2125 42.9872 35.4098 43.0121 35.6064 42.9981C35.8029 42.9842 35.9948 42.9316 36.171 42.8435C36.3472 42.7554 36.5044 42.6334 36.6335 42.4846C36.7626 42.3357 36.8611 42.1629 36.9234 41.976C36.9857 41.7891 37.0106 41.5917 36.9966 41.3952C36.9827 41.1986 36.9301 41.0068 36.842 40.8305L34.842 36.8305L34.766 36.6945C38.268 33.9945 40.686 29.8625 40.97 25.3905C41 24.9005 41 24.4605 41 23.7105V23.6345C41 23.5145 41 23.3885 40.992 23.2745C40.9858 23.1829 40.9765 23.0915 40.964 23.0005H41.5C41.8978 23.0005 42.2794 22.8425 42.5607 22.5612C42.842 22.2799 43 21.8983 43 21.5005C43 21.1027 42.842 20.7212 42.5607 20.4399C42.2794 20.1586 41.8978 20.0005 41.5 20.0005H5V6.27052Z" fill="#158DD8"/>
</svg>
