<svg width="89" height="60" viewBox="0 0 89 60" fill="none" xmlns="http://www.w3.org/2000/svg">
<path d="M24.2727 32C30.9882 32 36.4091 26.64 36.4091 20C36.4091 13.36 30.9882 8 24.2727 8C17.5573 8 12.1364 13.36 12.1364 20C12.1364 26.64 17.5573 32 24.2727 32ZM72.8182 8H48.5455C44.0955 8 40.4545 11.6 40.4545 16V36H8.09091V4C8.09091 1.8 6.27045 0 4.04545 0C1.82045 0 0 1.8 0 4V56C0 58.2 1.82045 60 4.04545 60C6.27045 60 8.09091 58.2 8.09091 56V48H80.9091V56C80.9091 58.2 82.7295 60 84.9545 60C87.1795 60 89 58.2 89 56V24C89 15.16 81.7586 8 72.8182 8Z" fill="#158DD8"/>
</svg>
