<svg width="16" height="21" viewBox="0 0 16 21" fill="none" xmlns="http://www.w3.org/2000/svg">
<path fill-rule="evenodd" clip-rule="evenodd" d="M7.262 20.7145C7.262 20.7145 0 14.4222 0 8.23065C0 6.04775 0.842855 3.95425 2.34315 2.4107C3.84344 0.867156 5.87827 0 8 0C10.1217 0 12.1566 0.867156 13.6569 2.4107C15.1571 3.95425 16 6.04775 16 8.23065C16 14.4222 8.738 20.7145 8.738 20.7145C8.334 21.0972 7.669 21.0931 7.262 20.7145ZM8 11.8316C8.45963 11.8316 8.91475 11.7384 9.33939 11.5575C9.76403 11.3765 10.1499 11.1113 10.4749 10.7769C10.7999 10.4425 11.0577 10.0455 11.2336 9.60866C11.4095 9.17178 11.5 8.70353 11.5 8.23065C11.5 7.75777 11.4095 7.28953 11.2336 6.85264C11.0577 6.41576 10.7999 6.0188 10.4749 5.68442C10.1499 5.35005 9.76403 5.08481 9.33939 4.90385C8.91475 4.72288 8.45963 4.62974 8 4.62974C7.07174 4.62974 6.1815 5.00912 5.52513 5.68442C4.86875 6.35973 4.5 7.27563 4.5 8.23065C4.5 9.18567 4.86875 10.1016 5.52513 10.7769C6.1815 11.4522 7.07174 11.8316 8 11.8316Z" fill="#158DD8"/>
</svg>
