<svg width="21" height="21" viewBox="0 0 21 21" fill="none" xmlns="http://www.w3.org/2000/svg">
<path d="M15.75 1.40688C17.3462 2.32844 18.6717 3.65394 19.5933 5.25014C20.5149 6.84635 21 8.65701 21 10.5001C21 12.3433 20.5148 14.1539 19.5932 15.7501C18.6716 17.3463 17.3461 18.6718 15.7499 19.5933C14.1537 20.5149 12.343 21 10.4998 21C8.65669 21 6.84602 20.5148 5.24983 19.5932C3.65363 18.6716 2.32815 17.3461 1.40662 15.7498C0.485079 14.1536 -4.68192e-05 12.3429 3.38903e-09 10.4998L0.00525012 10.1596C0.0640534 8.34627 0.591725 6.5791 1.53682 5.03039C2.48192 3.48169 3.81219 2.2043 5.39794 1.32275C6.98369 0.441212 8.7708 -0.0143962 10.5851 0.000346755C12.3993 0.0150897 14.1788 0.499681 15.75 1.40688ZM10.5 4.19986C10.2215 4.19986 9.95445 4.31048 9.75754 4.50739C9.56062 4.7043 9.45 4.97137 9.45 5.24985C8.61457 5.24985 7.81335 5.58172 7.22261 6.17246C6.63187 6.76319 6.3 7.5644 6.3 8.39983C6.3 9.23525 6.63187 10.0365 7.22261 10.6272C7.81335 11.2179 8.61457 11.5498 9.45 11.5498V13.6498C9.27586 13.6594 9.10201 13.6264 8.94354 13.5536C8.78507 13.4807 8.64678 13.3703 8.5407 13.2319L8.4693 13.1258C8.32564 12.8942 8.09751 12.7274 7.83314 12.6609C7.56878 12.5944 7.28891 12.6333 7.05271 12.7694C6.81651 12.9055 6.6425 13.1281 6.56748 13.3902C6.49245 13.6523 6.5223 13.9333 6.6507 14.1737C6.9187 14.6385 7.30098 15.0272 7.76129 15.3028C8.2216 15.5784 8.74469 15.7319 9.28095 15.7487H9.45C9.44978 16.0061 9.54408 16.2546 9.715 16.447C9.88592 16.6394 10.1216 16.7623 10.3771 16.7924L10.5 16.7998C10.7785 16.7998 11.0455 16.6891 11.2425 16.4922C11.4394 16.2953 11.55 16.0282 11.55 15.7498L11.7348 15.7445C12.5534 15.6972 13.3213 15.3326 13.8753 14.7281C14.4293 14.1236 14.7257 13.3269 14.7017 12.5074C14.6776 11.6878 14.3349 10.9099 13.7464 10.3389C13.1579 9.76799 12.3699 9.44903 11.55 9.44982V7.34983C11.9259 7.33723 12.2545 7.49683 12.4593 7.76773L12.5307 7.87378C12.6744 8.10546 12.9025 8.27219 13.1669 8.33871C13.4312 8.40522 13.7111 8.36632 13.9473 8.23022C14.1835 8.09412 14.3575 7.87149 14.4325 7.60942C14.5075 7.34734 14.4777 7.06636 14.3493 6.82589C14.0814 6.3609 13.6992 5.97205 13.2389 5.69623C12.7786 5.42041 12.2554 5.26675 11.719 5.24985H11.55C11.55 4.97137 11.4394 4.7043 11.2425 4.50739C11.0455 4.31048 10.7785 4.19986 10.5 4.19986ZM11.55 11.5498C11.8285 11.5498 12.0955 11.6604 12.2925 11.8573C12.4894 12.0542 12.6 12.3213 12.6 12.5998C12.6 12.8783 12.4894 13.1453 12.2925 13.3423C12.0955 13.5392 11.8285 13.6498 11.55 13.6498V11.5498ZM9.45 7.34983V9.44982C9.17152 9.44982 8.90445 9.33919 8.70754 9.14228C8.51062 8.94537 8.4 8.6783 8.4 8.39983C8.4 8.12135 8.51062 7.85428 8.70754 7.65737C8.90445 7.46046 9.17152 7.34983 9.45 7.34983Z" fill="#158DD8"/>
</svg>
