<svg width="45" height="45" viewBox="0 0 45 45" fill="none" xmlns="http://www.w3.org/2000/svg">
<path d="M22.5 43C26.5545 43 30.518 41.7977 33.8892 39.5451C37.2604 37.2926 39.8879 34.0909 41.4395 30.345C42.9911 26.5991 43.3971 22.4773 42.6061 18.5007C41.8151 14.524 39.8627 10.8713 36.9957 8.00432C34.1287 5.13734 30.476 3.18491 26.4993 2.39391C22.5227 1.60291 18.4009 2.00888 14.655 3.56048C10.9091 5.11207 7.70744 7.73961 5.45487 11.1108C3.2023 14.482 2 18.4455 2 22.5C2 25.8893 2.82 29.0828 4.27778 31.9004L2 43L13.0996 40.7222C15.9149 42.1777 19.1129 43 22.5 43Z" stroke="#158DD8" stroke-width="4" stroke-linecap="round" stroke-linejoin="round"/>
</svg>
