<svg width="31" height="32" viewBox="0 0 31 32" fill="none" xmlns="http://www.w3.org/2000/svg">
<path d="M21.282 4.84283L26.273 10.012M8.49999 8.75049H3.25C2.78587 8.75049 2.34075 8.94145 2.01256 9.28135C1.68437 9.62125 1.5 10.0823 1.5 10.5629V28.6875C1.5 29.1682 1.68437 29.6292 2.01256 29.9691C2.34075 30.309 2.78587 30.5 3.25 30.5H22.5C22.9641 30.5 23.4092 30.309 23.7374 29.9691C24.0656 29.6292 24.25 29.1682 24.25 28.6875V20.5315M28.4657 2.57C28.7936 2.90949 29.0537 3.31255 29.2312 3.75618C29.4087 4.1998 29.5 4.67529 29.5 5.15548C29.5 5.63567 29.4087 6.11116 29.2312 6.55478C29.0537 6.9984 28.7936 7.40147 28.4657 7.74095L16.4887 20.1454L10.25 21.4377L11.4977 14.9763L23.4747 2.57182C23.8022 2.23205 24.1912 1.96249 24.6194 1.77858C25.0476 1.59467 25.5066 1.5 25.9702 1.5C26.4338 1.5 26.8928 1.59467 27.321 1.77858C27.7492 1.96249 28.1382 2.23205 28.4657 2.57182V2.57Z" stroke="white" stroke-width="3" stroke-linecap="round" stroke-linejoin="round"/>
</svg>
