<svg width="61" height="68" viewBox="0 0 61 68" fill="none" xmlns="http://www.w3.org/2000/svg">
<path d="M58 9.69231C58 8.40703 57.4908 7.17439 56.5844 6.26556C55.6779 5.35673 54.4485 4.84615 53.1667 4.84615H43.5V0H38.6667V4.84615H19.3333V0H14.5V4.84615H4.83333C3.55145 4.84615 2.32208 5.35673 1.41565 6.26556C0.509225 7.17439 0 8.40703 0 9.69231V58.1538C0 59.4391 0.509225 60.6718 1.41565 61.5806C2.32208 62.4894 3.55145 63 4.83333 63H14.5V58.1538H4.83333V9.69231H14.5V14.5385H19.3333V9.69231H38.6667V14.5385H43.5V9.69231H53.1667V24.2308H58V9.69231Z" fill="#158DD8"/>
<path d="M41.5 31L47.7132 43.1804L61 45.1315L51.25 54.6134L53.6875 68L41.5 61.6804L29.3125 68L31.75 54.6134L22 45.1315L35.65 43.1804L41.5 31Z" fill="#158DD8"/>
</svg>
