<svg width="58" height="76" viewBox="0 0 58 76" fill="none" xmlns="http://www.w3.org/2000/svg">
<path d="M4.03288 44V74C4.03288 74.568 3.8393 75.0426 3.45214 75.424C3.06499 75.8053 2.58508 75.9973 2.01241 76C1.43974 76.0026 0.96117 75.8106 0.576702 75.424C0.192234 75.0373 0 74.5626 0 74V2.00003C0 1.43203 0.193578 0.95736 0.580735 0.576027C0.967891 0.194694 1.4478 0.00269406 2.02047 2.73972e-05C2.59314 -0.00263927 3.07171 0.189361 3.45618 0.576027C3.84064 0.962694 4.03288 1.43736 4.03288 2.00003V8.00002H54.7786C55.932 8.00002 56.8206 8.46802 57.4443 9.40402C58.0681 10.34 58.1649 11.3467 57.7347 12.424L52.2742 26L57.7347 39.576C58.1675 40.6533 58.0708 41.66 57.4443 42.596C56.8179 43.532 55.9293 44 54.7786 44H4.03288ZM28.2301 32C29.932 32 31.365 31.4213 32.5292 30.264C33.696 29.1093 34.2795 27.688 34.2795 26C34.2795 24.312 33.696 22.8907 32.5292 21.736C31.365 20.5787 29.932 20 28.2301 20C26.5283 20 25.0953 20.5787 23.9311 21.736C22.7669 22.8933 22.1835 24.3147 22.1808 26C22.1781 27.6853 22.7616 29.1067 23.9311 30.264C25.0953 31.4213 26.5283 32 28.2301 32Z" fill="#158DD8"/>
</svg>
