<svg width="53" height="53" viewBox="0 0 53 53" fill="none" xmlns="http://www.w3.org/2000/svg">
<path d="M40.1111 2H12.8889C10.001 2 7.23134 3.14722 5.18928 5.18928C3.14722 7.23134 2 10.001 2 12.8889V40.1111C2 42.999 3.14722 45.7687 5.18928 47.8107C7.23134 49.8528 10.001 51 12.8889 51H40.1111C42.999 51 45.7687 49.8528 47.8107 47.8107C49.8528 45.7687 51 42.999 51 40.1111V12.8889C51 10.001 49.8528 7.23134 47.8107 5.18928C45.7687 3.14722 42.999 2 40.1111 2Z" fill="#158DD8" fill-opacity="0.8" stroke="white" stroke-width="4" stroke-linejoin="round"/>
<path d="M26.5 37.3886C29.3879 37.3886 32.1575 36.2414 34.1996 34.1993C36.2417 32.1573 37.3889 29.3876 37.3889 26.4997C37.3889 23.6118 36.2417 20.8422 34.1996 18.8001C32.1575 16.7581 29.3879 15.6108 26.5 15.6108C23.6121 15.6108 20.8425 16.7581 18.8004 18.8001C16.7583 20.8422 15.6111 23.6118 15.6111 26.4997C15.6111 29.3876 16.7583 32.1573 18.8004 34.1993C20.8425 36.2414 23.6121 37.3886 26.5 37.3886Z" fill="#158DD8" fill-opacity="0.8" stroke="white" stroke-width="4" stroke-linejoin="round"/>
<path d="M41.4722 14.2501C42.1942 14.2501 42.8866 13.9633 43.3971 13.4528C43.9076 12.9423 44.1944 12.2499 44.1944 11.5279C44.1944 10.8059 43.9076 10.1135 43.3971 9.60298C42.8866 9.09247 42.1942 8.80566 41.4722 8.80566C40.7502 8.80566 40.0578 9.09247 39.5473 9.60298C39.0368 10.1135 38.75 10.8059 38.75 11.5279C38.75 12.2499 39.0368 12.9423 39.5473 13.4528C40.0578 13.9633 40.7502 14.2501 41.4722 14.2501Z" fill="#158DD8" fill-opacity="0.8"/>
</svg>
