<svg width="36" height="38" viewBox="0 0 36 38" fill="none" xmlns="http://www.w3.org/2000/svg">
<path d="M8 2V36M2 2V8C2 8.78793 2.15519 9.56815 2.45672 10.2961C2.75825 11.0241 3.20021 11.6855 3.75736 12.2426C4.31451 12.7998 4.97595 13.2417 5.7039 13.5433C6.43185 13.8448 7.21207 14 8 14C8.78793 14 9.56815 13.8448 10.2961 13.5433C11.0241 13.2417 11.6855 12.7998 12.2426 12.2426C12.7998 11.6855 13.2417 11.0241 13.5433 10.2961C13.8448 9.56815 14 8.78793 14 8V2M28 18C26.4087 18 24.8826 17.1571 23.7574 15.6569C22.6321 14.1566 22 12.1217 22 10C22 7.87827 22.6321 5.84344 23.7574 4.34315C24.8826 2.84285 26.4087 2 28 2C29.5913 2 31.1174 2.84285 32.2426 4.34315C33.3679 5.84344 34 7.87827 34 10C34 12.1217 33.3679 14.1566 32.2426 15.6569C31.1174 17.1571 29.5913 18 28 18ZM28 18V36" stroke="#158DD8" stroke-width="4" stroke-linecap="round" stroke-linejoin="round"/>
</svg>
