<svg width="34" height="45" viewBox="0 0 34 45" fill="none" xmlns="http://www.w3.org/2000/svg">
<path fill-rule="evenodd" clip-rule="evenodd" d="M15.4318 44.3882C15.4318 44.3882 0 30.9046 0 17.6371C0 12.9595 1.79107 8.47339 4.97919 5.16579C8.1673 1.85819 12.4913 0 17 0C21.5087 0 25.8327 1.85819 29.0208 5.16579C32.2089 8.47339 34 12.9595 34 17.6371C34 30.9046 18.5683 44.3882 18.5683 44.3882C17.7098 45.2083 16.2966 45.1995 15.4318 44.3882ZM17 25.3534C17.9767 25.3534 18.9438 25.1538 19.8462 24.766C20.7486 24.3782 21.5685 23.8098 22.2591 23.0933C22.9497 22.3768 23.4976 21.5262 23.8714 20.59C24.2451 19.6538 24.4375 18.6504 24.4375 17.6371C24.4375 16.6238 24.2451 15.6204 23.8714 14.6842C23.4976 13.7481 22.9497 12.8974 22.2591 12.1809C21.5685 11.4644 20.7486 10.896 19.8462 10.5082C18.9438 10.1205 17.9767 9.92088 17 9.92088C15.0275 9.92088 13.1357 10.7338 11.7409 12.1809C10.3461 13.628 9.5625 15.5906 9.5625 17.6371C9.5625 19.6836 10.3461 21.6462 11.7409 23.0933C13.1357 24.5404 15.0275 25.3534 17 25.3534Z" fill="white"/>
</svg>
