<svg width="72" height="75" viewBox="0 0 72 75" fill="none" xmlns="http://www.w3.org/2000/svg">
<path d="M19.0843 2.01387L0 13.1753V67.3445L19.0843 59.4595V2.01387ZM26.0241 58.336L32.0964 61.929V50.8232C32.0956 46.7868 33.133 42.8185 35.1084 39.3012C37.0837 35.7839 39.9304 32.8366 43.3735 30.7436V10.2711L26.0241 0V58.336ZM69.3976 1.2591V31.9088C66.6863 29.9143 63.5794 28.5267 60.287 27.8396C56.9945 27.1525 53.5933 27.1821 50.3133 27.9263V9.14414L69.3976 1.2591ZM55.5181 75L54.8137 74.5339C54.1752 74.1131 53.5368 73.6922 52.9157 73.24C50.5761 71.5093 48.4089 69.556 46.4443 67.4071C42.9918 63.602 39.0361 57.783 39.0361 50.8232C39.0361 48.6536 39.4625 46.5052 40.2908 44.5007C41.1191 42.4963 42.3331 40.675 43.8636 39.1408C45.3941 37.6067 47.211 36.3897 49.2107 35.5594C51.2104 34.7291 53.3536 34.3018 55.5181 34.3018C57.6825 34.3018 59.8258 34.7291 61.8254 35.5594C63.8251 36.3897 65.6421 37.6067 67.1726 39.1408C68.703 40.675 69.9171 42.4963 70.7454 44.5007C71.5737 46.5052 72 48.6536 72 50.8232C72 57.783 68.0443 63.602 64.5918 67.4071C62.6273 69.556 60.4601 71.5093 58.1205 73.24C57.4994 73.6922 56.8609 74.1096 56.2225 74.5339L55.5181 75ZM59.8554 48.2145H51.1807V55.1709H59.8554V48.2145Z" fill="#158DD8"/>
</svg>
