<svg width="67" height="67" viewBox="0 0 67 67" fill="none" xmlns="http://www.w3.org/2000/svg">
<path d="M37.6875 44.6667C37.6875 45.7773 37.2463 46.8424 36.461 47.6277C35.6757 48.413 34.6106 48.8542 33.5 48.8542C32.3894 48.8542 31.3243 48.413 30.539 47.6277C29.7537 46.8424 29.3125 45.7773 29.3125 44.6667C29.3125 43.5561 29.7537 42.491 30.539 41.7057C31.3243 40.9204 32.3894 40.4792 33.5 40.4792C34.6106 40.4792 35.6757 40.9204 36.461 41.7057C37.2463 42.491 37.6875 43.5561 37.6875 44.6667Z" fill="#158DD8"/>
<path d="M40.052 1.84253L48.9295 14.2822L54.7837 12.2862L60.1269 27.9167H62.8125V61.4167H4.1875V27.9167H5.61125V27.8888L7.42025 27.9055L40.052 1.84253ZM26.2333 27.9167H54.2281L51.3332 19.4496L47.0842 20.8091L26.2333 27.9167ZM21.8839 23.4975L43.4104 16.1638L38.9326 9.88253L21.8839 23.4975ZM15.3542 33.5H9.77083V39.0834C11.2516 39.0834 12.6718 38.4951 13.7188 37.448C14.7659 36.401 15.3542 34.9808 15.3542 33.5ZM43.2708 44.6667C43.2708 43.3836 43.0181 42.113 42.5271 40.9276C42.036 39.7421 41.3163 38.665 40.409 37.7577C39.5017 36.8504 38.4246 36.1306 37.2391 35.6396C36.0537 35.1486 34.7831 34.8959 33.5 34.8959C32.2169 34.8959 30.9463 35.1486 29.7609 35.6396C28.5754 36.1306 27.4983 36.8504 26.591 37.7577C25.6837 38.665 24.964 39.7421 24.4729 40.9276C23.9819 42.113 23.7292 43.3836 23.7292 44.6667C23.7292 47.2581 24.7586 49.7433 26.591 51.5757C28.4234 53.4081 30.9086 54.4375 33.5 54.4375C36.0914 54.4375 38.5766 53.4081 40.409 51.5757C42.2414 49.7433 43.2708 47.2581 43.2708 44.6667ZM57.2292 55.8334V50.25C55.7484 50.25 54.3282 50.8383 53.2812 51.8853C52.2341 52.9324 51.6458 54.3526 51.6458 55.8334H57.2292ZM51.6458 33.5C51.6458 34.9808 52.2341 36.401 53.2812 37.448C54.3282 38.4951 55.7484 39.0834 57.2292 39.0834V33.5H51.6458ZM9.77083 55.8334H15.3542C15.3542 54.3526 14.7659 52.9324 13.7188 51.8853C12.6718 50.8383 11.2516 50.25 9.77083 50.25V55.8334Z" fill="#158DD8"/>
</svg>
