<svg width="38" height="34" viewBox="0 0 38 34" fill="none" xmlns="http://www.w3.org/2000/svg">
<path d="M26.346 11.692H30.5C31.0987 11.692 31.6073 11.4827 32.026 11.064C32.4447 10.6453 32.654 10.1367 32.654 9.538V7.08C32.654 6.48 32.4447 5.97134 32.026 5.554C31.6073 5.13534 31.0987 4.926 30.5 4.926H26.192C25.7347 4.926 25.3513 5.08067 25.042 5.39C24.7327 5.69934 24.578 6.08267 24.578 6.54V14.194C24.578 14.45 24.6613 14.6613 24.828 14.828C24.9947 14.9947 25.2053 15.078 25.46 15.078C25.7147 15.078 25.926 14.9947 26.094 14.828C26.262 14.6613 26.346 14.45 26.346 14.194V11.692ZM26.346 9.924V6.692H30.886V9.924H26.346ZM21.232 20C20.3107 20 19.542 19.692 18.926 19.076C18.31 18.46 18.0013 17.6867 18 16.756V3.244C18 2.31467 18.3087 1.54134 18.926 0.924004C19.5433 0.306671 20.316 -0.00132902 21.244 4.31035e-06H34.756C35.6853 4.31035e-06 36.4587 0.308671 37.076 0.926004C37.6933 1.54334 38.0014 2.316 38 3.244V16.756C38 17.6853 37.692 18.4587 37.076 19.076C36.46 19.6933 35.6913 20.0013 34.77 20H29V33C29 33.284 28.904 33.5213 28.712 33.712C28.52 33.9027 28.282 33.9987 27.998 34C27.714 34.0013 27.4767 33.9053 27.286 33.712C27.0953 33.5187 27 33.2813 27 33V20H21.232ZM13.116 34C12.832 34 12.5947 33.904 12.404 33.712C12.2133 33.52 12.1173 33.2827 12.116 33V30H1.00001C0.716014 30 0.47868 29.904 0.288014 29.712C0.0973472 29.52 0.00134703 29.2827 1.36986e-05 29V17.308C1.36986e-05 17.024 0.0960138 16.7867 0.288014 16.596C0.480014 16.4053 0.717347 16.3093 1.00001 16.308H11.746L8.80001 8H1.00001C0.716014 8 0.47868 7.904 0.288014 7.712C0.0973472 7.52 0.00134703 7.282 1.36986e-05 6.998C-0.00131963 6.714 0.0946805 6.47667 0.288014 6.286C0.481347 6.09534 0.71868 6 1.00001 6H9.27001C9.57268 6 9.84735 6.092 10.094 6.276C10.3407 6.46 10.512 6.70134 10.608 7L14.416 17.774C14.4827 17.9473 14.526 18.1253 14.546 18.308C14.5673 18.4907 14.578 18.6727 14.578 18.854V33C14.578 33.284 14.482 33.5213 14.29 33.712C14.098 33.9027 13.8607 33.9987 13.578 34H13.116ZM7.74001 25.384C8.36268 25.384 8.88868 25.1667 9.31801 24.732C9.74735 24.296 9.96201 23.7673 9.96201 23.146C9.96201 22.5233 9.74401 21.9967 9.30801 21.566C8.87335 21.138 8.34468 20.924 7.72201 20.924C7.09935 20.924 6.57335 21.1413 6.14401 21.576C5.71468 22.0107 5.50001 22.5393 5.50001 23.162C5.50001 23.7847 5.71801 24.3113 6.15401 24.742C6.58868 25.17 7.11735 25.384 7.74001 25.384Z" fill="#158DD8"/>
</svg>
