<svg width="16" height="10" viewBox="0 0 16 10" fill="none" xmlns="http://www.w3.org/2000/svg">
<path d="M10.9091 4.28571C12.1164 4.28571 13.0836 3.32857 13.0836 2.14286C13.0836 0.957143 12.1164 0 10.9091 0C9.70182 0 8.72727 0.957143 8.72727 2.14286C8.72727 3.32857 9.70182 4.28571 10.9091 4.28571ZM5.09091 4.28571C6.29818 4.28571 7.26545 3.32857 7.26545 2.14286C7.26545 0.957143 6.29818 0 5.09091 0C3.88364 0 2.90909 0.957143 2.90909 2.14286C2.90909 3.32857 3.88364 4.28571 5.09091 4.28571ZM5.09091 5.71429C3.39636 5.71429 0 6.55 0 8.21429V10H10.1818V8.21429C10.1818 6.55 6.78545 5.71429 5.09091 5.71429ZM10.9091 5.71429C10.6982 5.71429 10.4582 5.72857 10.2036 5.75C11.0473 6.35 11.6364 7.15714 11.6364 8.21429V10H16V8.21429C16 6.55 12.6036 5.71429 10.9091 5.71429Z" fill="#158DD8"/>
</svg>
