<svg width="36" height="36" viewBox="0 0 36 36" fill="none" xmlns="http://www.w3.org/2000/svg">
<path d="M7.24 15.58C10.12 21.24 14.76 25.88 20.42 28.76L24.82 24.36C25.38 23.8 26.16 23.64 26.86 23.86C29.1 24.6 31.5 25 34 25C34.5304 25 35.0391 25.2107 35.4142 25.5858C35.7893 25.9609 36 26.4696 36 27V34C36 34.5304 35.7893 35.0391 35.4142 35.4142C35.0391 35.7893 34.5304 36 34 36C24.9826 36 16.3346 32.4179 9.95837 26.0416C3.58213 19.6654 0 11.0174 0 2C0 1.46957 0.210714 0.960859 0.585786 0.585786C0.960859 0.210714 1.46957 0 2 0H9C9.53043 0 10.0391 0.210714 10.4142 0.585786C10.7893 0.960859 11 1.46957 11 2C11 4.5 11.4 6.9 12.14 9.14C12.36 9.84 12.2 10.62 11.64 11.18L7.24 15.58Z" fill="white"/>
</svg>
