<svg width="34" height="34" viewBox="0 0 34 34" fill="none" xmlns="http://www.w3.org/2000/svg">
<path d="M14.8737 3.35452e-08C17.6667 -0.000187501 20.4032 0.785936 22.7703 2.2684C25.1373 3.75087 27.0391 5.86979 28.2581 8.38266C29.4771 10.8955 29.964 13.7008 29.6632 16.4775C29.3623 19.2542 28.2857 21.8901 26.5567 24.0835L32.9477 30.4745C33.2665 30.8046 33.4429 31.2466 33.4389 31.7055C33.4349 32.1643 33.2509 32.6032 32.9264 32.9277C32.602 33.2521 32.163 33.4362 31.7042 33.4402C31.2453 33.4442 30.8033 33.2678 30.4732 32.949L24.0822 26.558C22.2193 28.0262 20.0322 29.0276 17.7035 29.4786C15.3748 29.9296 12.972 29.8172 10.6956 29.1508C8.41922 28.4844 6.33518 27.2832 4.6174 25.6475C2.89962 24.0118 1.5979 21.9891 0.820847 19.748C0.043796 17.507 -0.186054 15.1125 0.150474 12.7646C0.487002 10.4166 1.38015 8.18316 2.7554 6.25057C4.13065 4.31798 5.94812 2.74229 8.05618 1.65496C10.1642 0.567637 12.5018 0.00020211 14.8737 3.35452e-08ZM14.8737 3.5C11.8569 3.5 8.96362 4.69843 6.83039 6.83166C4.69717 8.96489 3.49873 11.8582 3.49873 14.875C3.49873 17.8918 4.69717 20.7851 6.83039 22.9183C8.96362 25.0516 11.8569 26.25 14.8737 26.25C17.8906 26.25 20.7838 25.0516 22.9171 22.9183C25.0503 20.7851 26.2487 17.8918 26.2487 14.875C26.2487 11.8582 25.0503 8.96489 22.9171 6.83166C20.7838 4.69843 17.8906 3.5 14.8737 3.5ZM14.8737 5.25C17.4264 5.25 19.8746 6.26406 21.6796 8.0691C23.4847 9.87414 24.4987 12.3223 24.4987 14.875C24.4987 17.4277 23.4847 19.8759 21.6796 21.6809C19.8746 23.4859 17.4264 24.5 14.8737 24.5C12.321 24.5 9.87287 23.4859 8.06783 21.6809C6.26279 19.8759 5.24873 17.4277 5.24873 14.875C5.24873 12.3223 6.26279 9.87414 8.06783 8.0691C9.87287 6.26406 12.321 5.25 14.8737 5.25Z" fill="#158DD8" fill-opacity="0.8"/>
</svg>
