<svg width="25" height="23" viewBox="0 0 25 23" fill="none" xmlns="http://www.w3.org/2000/svg">
<path d="M12.4994 19.2682L6.44014 22.7843C6.17246 22.9484 5.89261 23.0187 5.6006 22.9953C5.30859 22.9719 5.05308 22.8781 4.83407 22.714C4.61506 22.5499 4.44472 22.3451 4.32305 22.0994C4.20138 21.8537 4.17704 21.5781 4.25005 21.2724L5.85611 14.627L0.490398 10.1615C0.247055 9.95056 0.0952091 9.71006 0.0348601 9.44003C-0.025489 9.16999 -0.00748172 8.90652 0.0888821 8.64961C0.185246 8.3927 0.331252 8.18173 0.5269 8.01671C0.722547 7.85169 0.990225 7.7462 1.32993 7.70026L8.41121 7.10252L11.1488 0.843864C11.2705 0.562576 11.4593 0.35161 11.7153 0.210966C11.9713 0.0703218 12.2327 0 12.4994 0C12.7661 0 13.0274 0.0703218 13.2834 0.210966C13.5394 0.35161 13.7283 0.562576 13.8499 0.843864L16.5875 7.10252L23.6688 7.70026C24.0095 7.74714 24.2772 7.85262 24.4719 8.01671C24.6665 8.18079 24.8125 8.39176 24.9099 8.64961C25.0072 8.90745 25.0257 9.1714 24.9654 9.44143C24.905 9.71147 24.7527 9.9515 24.5084 10.1615L19.1426 14.627L20.7487 21.2724C20.8217 21.5771 20.7974 21.8528 20.6757 22.0994C20.554 22.346 20.3837 22.5509 20.1647 22.714C19.9457 22.8772 19.6902 22.9709 19.3982 22.9953C19.1061 23.0197 18.8263 22.9493 18.5586 22.7843L12.4994 19.2682Z" fill="#E4BE00"/>
</svg>
