<svg width="33" height="41" viewBox="0 0 33 41" fill="none" xmlns="http://www.w3.org/2000/svg">
<path d="M20.7819 0.591145C21.1605 0.212635 21.674 0 22.2093 0C22.7447 0 23.2582 0.212635 23.6368 0.591145L31.7129 8.66727C32.0914 9.04589 32.3041 9.55935 32.3041 10.0947C32.3041 10.6301 32.0914 11.1436 31.7129 11.5222L23.6368 19.5983C23.256 19.9661 22.746 20.1696 22.2166 20.165C21.6872 20.1604 21.1808 19.9481 20.8065 19.5737C20.4321 19.1994 20.2198 18.693 20.2152 18.1636C20.2106 17.6342 20.4141 17.1242 20.7819 16.7434L25.4115 12.1138H2.01903C1.48355 12.1138 0.970003 11.901 0.591361 11.5224C0.212719 11.1438 0 10.6302 0 10.0947C0 9.55924 0.212719 9.0457 0.591361 8.66705C0.970003 8.28841 1.48355 8.07569 2.01903 8.07569H25.4115L20.7819 3.44605C20.4034 3.06743 20.1907 2.55397 20.1907 2.0186C20.1907 1.48323 20.4034 0.969769 20.7819 0.591145ZM11.5226 20.7815C11.9011 21.1601 12.1138 21.6735 12.1138 22.2089C12.1138 22.7443 11.9011 23.2577 11.5226 23.6364L6.89297 28.266H30.2855C30.8209 28.266 31.3345 28.4787 31.7131 28.8574C32.0918 29.236 32.3045 29.7496 32.3045 30.285C32.3045 30.8205 32.0918 31.3341 31.7131 31.7127C31.3345 32.0913 30.8209 32.3041 30.2855 32.3041H6.89297L11.5226 36.9337C11.8904 37.3145 12.0939 37.8245 12.0893 38.3539C12.0847 38.8833 11.8724 39.3897 11.498 39.764C11.1237 40.1384 10.6173 40.3507 10.0879 40.3553C9.55851 40.3599 9.04849 40.1564 8.6677 39.7886L0.591577 31.7125C0.213067 31.3339 0.000431312 30.8204 0.000431312 30.285C0.000431312 29.7497 0.213067 29.2362 0.591577 28.8576L8.6677 20.7815C9.04632 20.4029 9.55978 20.1903 10.0952 20.1903C10.6305 20.1903 11.144 20.4029 11.5226 20.7815Z" fill="#158DD8"/>
</svg>
