<svg width="57" height="42" viewBox="0 0 57 42" fill="none" xmlns="http://www.w3.org/2000/svg">
<path d="M0 0H56.8333V13.0226C55.0243 13.3248 53.3811 14.2587 52.1959 15.6583C51.0107 17.058 50.3602 18.8326 50.3602 20.6667C50.3602 22.5007 51.0107 24.2753 52.1959 25.675C53.3811 27.0746 55.0243 28.0086 56.8333 28.3107V41.3333H0V28.3107C1.81063 28.0102 3.45582 27.0768 4.64264 25.6767C5.82945 24.2766 6.48085 22.5008 6.48085 20.6654C6.48085 18.83 5.82945 17.0541 4.64264 15.6541C3.45582 14.254 1.81063 13.3206 0 13.02V0ZM38.75 18.0833V12.9167H18.0833V18.0833H38.75ZM38.75 28.4167V23.25H18.0833V28.4167H38.75Z" fill="#158DD8"/>
</svg>
