<svg width="62" height="62" viewBox="0 0 62 62" fill="none" xmlns="http://www.w3.org/2000/svg">
<path d="M28.2874 32.8083L24.5416 29.1271C24.068 28.6535 23.4764 28.4166 22.7669 28.4166C22.0573 28.4166 21.4433 28.675 20.9249 29.1916C20.4513 29.6653 20.2145 30.268 20.2145 31C20.2145 31.7319 20.4513 32.3347 20.9249 32.8083L26.4791 38.3625C26.9958 38.8791 27.5985 39.1375 28.2874 39.1375C28.9763 39.1375 29.5791 38.8791 30.0958 38.3625L41.0749 27.3833C41.5916 26.8666 41.8387 26.2639 41.8164 25.575C41.794 24.8861 41.5468 24.2833 41.0749 23.7666C40.5583 23.25 39.9452 22.9813 39.2356 22.9606C38.526 22.94 37.9121 23.1871 37.3937 23.7021L28.2874 32.8083ZM21.0541 56.1875L17.3083 49.8583L10.2041 48.3083C9.55827 48.1791 9.0416 47.8459 8.6541 47.3086C8.2666 46.7712 8.11591 46.1788 8.20202 45.5312L8.91243 38.2333L4.06868 32.6791C3.63813 32.2055 3.42285 31.6458 3.42285 31C3.42285 30.3541 3.63813 29.7944 4.06868 29.3208L8.91243 23.7666L8.20202 16.4687C8.11591 15.8229 8.2666 15.2305 8.6541 14.6914C9.0416 14.1523 9.55827 13.8191 10.2041 13.6916L17.3083 12.1416L21.0541 5.81248C21.3985 5.25276 21.8722 4.87559 22.4749 4.68098C23.0777 4.48637 23.6805 4.51909 24.2833 4.77915L30.9999 7.62081L37.7166 4.77915C38.3194 4.52081 38.9222 4.48809 39.5249 4.68098C40.1277 4.87387 40.6013 5.25103 40.9458 5.81248L44.6916 12.1416L51.7958 13.6916C52.4416 13.8208 52.9583 14.1549 53.3458 14.694C53.7333 15.233 53.884 15.8246 53.7979 16.4687L53.0874 23.7666L57.9312 29.3208C58.3617 29.7944 58.577 30.3541 58.577 31C58.577 31.6458 58.3617 32.2055 57.9312 32.6791L53.0874 38.2333L53.7979 45.5312C53.884 46.1771 53.7333 46.7695 53.3458 47.3086C52.9583 47.8476 52.4416 48.1809 51.7958 48.3083L44.6916 49.8583L40.9458 56.1875C40.6013 56.7472 40.1277 57.1244 39.5249 57.319C38.9222 57.5136 38.3194 57.4809 37.7166 57.2208L30.9999 54.3791L24.2833 57.2208C23.6805 57.4791 23.0777 57.5119 22.4749 57.319C21.8722 57.1261 21.3985 56.7489 21.0541 56.1875Z" fill="#158DD8"/>
</svg>
